<?xml version="1.0" encoding="UTF-8"?>
<svg version="1.1" viewBox="0 0 800 800" width="200" height="200" xmlns="http://www.w3.org/2000/svg">
<path transform="translate(343,162)" d="m0 0 6 1 23 7 7 3-3 3-16 9-19 12-15 10-17 12-13 10 5 9 3 5-1 3-8 7-7 7-7 8-18 18-7 8-12 14 1 4 9 9 7 8 4 2 11-12 9-10 20-20 22-18 6-5 3 1 3 3-1 5-16 15-6 6h-2l-2 4-8 7-15 16-7 7-7 8-10 10-8 10 1 4 7 9 5 5 4 3 9-10 7-8 5-6h2l2-4 28-28 8-7 8-8 11-9 14-13 14-11 10-8 4 1 9 10 3 4-2 4-16 13-6 6v3l21 21 2 3 4-2 14-15 11-9 13-9 21-11 24-8 13-3-2-5-1-3 17-7 24-8 26-7 20-4h9l-4-7-13-19-8-11-1-5h15l14 3 19 9 16 13 10 9 16 17 8 8 11 14 10 12 11 17 9 16 9 17 9 26 5 9 1 9-2 1-23-8-10-3-6-12-3-9-13-3h-5l14 24 10 21 6 20 4 24 1 17 4 9v11l-5 10h-7l-4-6-1-3v-13l5-10-2-22-5-23-7-21-8-17-7-11-8-10h-15l-16 3-5 1 4 4 8 7 13 12 14 19 8 13 8 16 4 17 2 38 2 6 3 8 8 37v12l-4 16-8 17-8 11-2 1 3-9 4-11 5-21 1-9v-14l-2-26v-7h-17l2 26v9l-3 19-7 25-7 20h15l1 2-3 7-5 17-7 19-8 17-10 16-13 16-8 9-14 11-14 8-13 6-21 7-8 1-1 5-4 5-9 4-8 1-16-2-8-5-3-5v-11l-9-2-16-8-12-9-10-9-9-10-10-15-15-28-6-15-4-15-1-8h-2l-2 5-9 20-7 20-4 15-3 15-1 14v16l2 20 4 13 6 9 10 9 13 8 5 3v2l-14-2-13-3-17-8-12-11-9-13-2-1-1 9-3 9-2 2-12-1-19-7-40-20-23-13-17-12-14-12-20-20-9-11-7-8-14-20-23-46-12-28-5-17-5-26-2-13-1-14v-41l1-22 3-12 5-25 10-30 9-21 10-19 9-14 13-17 10-13 12-13 18-18h2v-2l14-11 12-10 16-11 18-11 16-9 21-9zm168 121-24 6-15 6-17 9-14 10-13 11-9 9-4 7 5 6-5 5-11 9-6 4-7 10-6 12-8 21-6 22-4 17 4-25 7-30 1-6-17 17-7 8-12 14-13 17-8 11 1 5 13 15 11 12 2 3 4-1 11-12 8-10 6-7v-2l4-2 7-8 8-9 8-7 8 6 27 27 8 10 1 7 4-2 11-12 12-13 4-4v-3l-27-8-6-2h-5l3 9 6 10 2 3-8-7-16-12-14-11-16-13-4-3h-2l1-4 9-17 9-10 7-8 8-8 14-11 12-9 16-9 14-6 17-5 15-3 11-1h22l16 2 21 6 16 6h2l-2-5-10-17-14-24-3-2-13-3h-9l-15 5-14 5-6-10zm101 142 1 5 8 14 10 16 9 15 8 13 5 8 3-1 3-13 6-2-2-5-7-11-10-13-12-12-17-12z" fill="#E08130"/>
<path transform="translate(569,406)" d="m0 0 8 1 5 2 3 3-2 27 2 5 13 6 12 4 7 1v-7h3l1 3 4 1 1-2 10 17 12 19 5 9h2l3-13 2-1-1 5-1 19-1 8-1 1-5 33-3 8-7 20 1 5 3 1v2l13 2 2 1v7l-5 19-2 11-2 6-4 4-2 10-4 9-5 9-4 7h-2l-2 4-6 5-5 5-4 5-8 7h-3v2l-22 11-7 1v2l-9 3-12 1-1-3-5-1-9-4h-18l-7 2-5 3-3 4-1-3-9-2-16-8-12-9-10-9-9-10-10-15-15-28-6-15-4-15-1-8h-2l-2 5-3 4 1-6 4-8 5-13 8-15h2l1-3h2l1-6 6-12 8-11 9-13h2l2-4 4-6h4l1-4h2l2-4 4-7 4-2 7-10 15-16 11-9 4-1v-2l8-7 8-9 4-2 3-4 5-3 7-5 5-2 6-5 5-1 1-4z" fill="#DEDFDE"/>
<path transform="translate(526,320)" d="m0 0h22l16 2 21 6 16 6v2l4 1 7 10 1 6 7-1 4-2h6l8 6 16 15 14 19 8 13 8 16 4 17 2 38 2 6 3 8 8 37v12l-4 16-8 17-8 11-2 1 3-9 4-11 5-21 1-9v-14l-2-26v-7h-17l2 26v9l-3 19-7 25-7 20h15l1 2-3 7-5 17-7 19-8 17-10 16-13 16-8 9-14 11-14 8-13 6-21 7-8 1-1 5-4 5-9 4-8 1-16-2-8-5-3-5v-8h2l2-5 7-4 5-1h18l9 4 5 2 1 2 12-1 9-2v-2l11-4 12-6 3-2h3v-2l5-3 7-6 4-5 5-5 6-5 1-2h2l2-6 5-8 6-15 2-8 4-2v-5l2-4 3-17 3-10 1-7-15-3v-2l-4-1-1-5 9-27 1-1 5-33 1-1 1-8 1-19 3-6h4l-8-13-12-16-11-11-17-12-4-2 2 6 10 17v3l-5-1v-3h-3v7h-7l-19-7-6-3-3-4 1-17 1-12-3-3-7-2h-5l-4 2-1 3-8 4-4 4-5 2-12 8-4 4-7 6-7 8-4 2v2l-5 3-11 9-7 7-7 8-8 11h-3l-1 4-5 7h-2l-1 4-4 1-3 5-3 4h-2l-2 5-6 8-10 14-4 9-2 6-5 4-8 16-6 16-3 6-3 10-6 14-7 21-5 24-1 14v16l2 20 4 13 6 9 10 9 13 8 5 3v2l-14-2-13-3-17-8-12-11-5-7-4-11-1-7v-26l4-27 6-25 3-11 2-10 1-3h2l2-12 2-5h2l1-7 5-10 4-10 14-26 16-24 11-15 2-3h2l2-4 4-6 3-2 3-5 16-17 12-13 3-3 1-3-10-2-23-7-5-1 4 9 6 10 3 4-4-2-10-8-20-15-17-14-11-8-1-3 10-18 9-10 7-8 9-9 14-11 12-9 16-9 14-6 17-5 15-3z" fill="#231E1C"/>
<path transform="translate(405,429)" d="m0 0 8 6 28 28 8 10 1 8-3 3-2 4-4 3-3 5-2 3h-2l-2 4-13 18-14 22-14 26-7 17-3 8h-2l-4 17h-2l-2 13-7 27-4 21-2 15v26l2 11 2 3-1 3-3-5-2-1-1 9-3 9-2 2-12-1-19-7-40-20-23-13-17-12-14-12-20-20-9-11-3-4v-74l5-32 2-8 2-13 5-16 5-14 6-13 7-16 4-7 4-4 4-5h2l1-2 6-4 8-2 4 4 1 9 6-7 6-8v3l-8 14-8 13-12 22-8 16-5 13-12 37-3 15-2 26v9l2 10 3 5 11 1h10l8-3 3-5 3-7 5-17 3-15 6-13 8-20 6-13 6-15 4-9 9-17 11-19 12-14h2l-2 4 1 5 13 15 11 12 1 2 4-1 10-11 8-10 7-9 14-14 5-6z" fill="#C0C7C5"/>
<path transform="translate(343,162)" d="m0 0 6 1 23 7 7 3-3 3-16 9-19 12-15 10-17 12-13 10 5 9 3 5-1 3-8 7-7 7-7 8-18 18-7 8-12 14v4l-4 1-8 8-11 14-12 16-11 15-10 15-9 15-11 21-7 18-10 32-5 22-4 24-3 8-3 1-4-7-4-25-1-14v-41l1-22 3-12 5-25 10-30 9-21 10-19 9-14 13-17 10-13 12-13 18-18h2v-2l14-11 12-10 16-11 18-11 16-9 21-9z" fill="#72639A"/>
<path transform="translate(508,351)" d="m0 0h9l15 4 5 1 36 7 26 6 13 1 18 6 4 2 2 7-2 15-3 10-1 7v11l3 6 2 1v3l4 1 5 5 3 5-2 2-11-11-17-12-4-2 2 6 10 17v3l-5-1v-3h-3v7h-7l-19-7-6-3-3-4 1-17 1-12-3-3-7-2h-5l-4 2-1 3-8 4-4 4-5 2-12 8-4 4-7 6-7 8-4 2v2l-5 3-11 9-7 7-7 8-8 11h-3l-1 4-5 7h-2l-1 4-4 1-3 5-3 4h-2l-2 5-6 8-10 14-4 9-2 6-5 4-8 16-6 16-3 6-3 10-6 14-7 21-5 24-1 14v16l2 20 4 13 6 9 10 9 13 8 5 3v2l-14-2-13-3-17-8-12-11-5-7-4-11-1-7v-26l4-27 6-25 3-11 2-10 1-3h2l2-12 2-5h2l1-7 5-10 4-10 14-26 16-24 11-15 2-3h2l2-4 4-6 3-2 3-5 16-17 12-13 3-3 1-3-10-2v-1l5-1 2-2 5-1 2-9 4-10 3-19 2-14 2-12 1-1 2-10 3-10z" fill="#241F1D"/>
<path transform="translate(574,199)" d="m0 0h15l14 3 19 9 16 13 10 9 16 17 8 8 11 14 10 12 11 17 9 16 9 17 9 26 5 9 1 9-2 1-23-8-10-3-6-12-3-9-13-3h-5l14 24 10 21 6 20 4 24 1 17 4 9v11l-5 10h-7l-4-6-1-3v-13l5-10-2-22-5-23-7-21-8-17-7-11-8-10h-15l-16 3-5 1v2l-9 3-5 1-2-1-3-7-6-9-3-2h2l-9-15-16-28-4-4-13-3h-9l-15 5-14 5-6-9v-2l-4-1-1-5h-3v-2l-2-1-2-5-1-3 17-7 24-8 26-7 20-4h9l-4-7-13-19-8-11z" fill="#90C042"/>
<path transform="translate(342,546)" d="m0 0 5 2 8 5 18 4 7 4h6v2h2l-1 7-5 11-6 18-1 6h-2l-2 10-2 8-2 9-2 4-5 24-3 20v34l3 10 2 3-1 3-3-5-2-1-1 9-3 9-2 2-12-1-19-7-40-20-21-12 2-4 2 1 4-3 5 2 10 1 3-7 1-7 2-30 3-24 5-22 11-32 8-18 5-9 5-4 3-1 2 5z" fill="#D3E9B8"/>
<path transform="translate(333,266)" d="m0 0 3 1 3 3-1 5-16 15-6 6h-2l-2 4-8 7-15 16-7 7-7 8-10 10-8 10v4l-5 3-2 3h-2l-2 4-12 17-10 16-9 15-16 32-11 26-7 22-4 17-4 28-1 15v52l-3-4-17-34-12-28-5-17-2-11 3 2v2l3-2 3-11 5-30 7-25 9-27 8-18 12-22 12-18 8-11 21-28 11-13 7-6 5 3 7 7 7 8 4 2 11-12 9-10 20-20 22-18z" fill="#E38C8A"/>
<path transform="translate(405,429)" d="m0 0 8 6 28 28 8 10 1 8-3 3-2 4-4 3-3 5-2 3h-2l-2 4-13 18-14 22-14 26-7 17-3 8h-2l-4 17h-2l-2 13-7 27-4 21-2 15v31l-2-4v-34l4-24 4-20 4-10 1-7 4-14h2l1-9 6-17 5-12 1-4h-2v-2l-6 1-10-5-15-3-11-7-15 5-3-4-7 4v-3l10-21 12-22 7-11 2-5-1-2 5-3 9-10 8-10 7-9 14-14 5-6z" fill="#A0CC62"/>
<path transform="translate(271,432)" d="m0 0v3l-8 14-8 13-12 22-8 16-5 13-12 37-3 15-2 26v9l2 10 3 5 11 1h10l8-3 3-5 3-7 5-17 3-15 6-13 8-20 6-13 6-15 4-9 9-17 11-19 12-14h2l-2 4-1 3-5 5-12 21-10 19-9 20-10 28-6 21-5 15-7 27-3 21-1 24 1 11v20l-1 1h-7l-8-4v-2l-4-1-10-7-2-1v-2l-3-1-4-4-5-9v-5l-2-1-4-12-6 2-1 2-5 1v-75l5-32 2-8 2-13 5-16 5-14 6-13 7-16 4-7 4-4 4-5h2l1-2 6-4 8-2 4 4 1 9 6-7z" fill="#E5987E"/>
<path transform="translate(574,199)" d="m0 0h15l14 3 19 9 16 13 10 9 16 17 8 8 11 14 8 10-3 1v-2l-17-4-15-3-34-2-26 2-12 3-11 2 1 8-9-1-4-1h-9l-15 5-14 5-6-9v-2l-4-1-1-5h-3v-2l-2-1-2-5-1-3 17-7 24-8 26-7 20-4h9l-4-7-13-19-8-11z" fill="#5EAED6"/>
<path transform="translate(255,362)" d="m0 0 4 1 6 8 5 5 2 4-1 7-13 17-13 19-12 19-16 31-11 28-6 21-5 24-2 15-1 13v38l1 28-5-2-11-15-5-9-1-32v-22l2-23 4-24 5-20 7-20 12-27 15-30 8-13 9-14 12-17 8-9z" fill="#241F1D"/>
<path transform="translate(230,245)" d="m0 0 4 1 3 3 3-1v2l4-1 1 4 4 5 2 4-7 8-5 5h-2v2h-2v2l-8 7-8 9-6 8-16 21-10 15-8 13-15 26-9 19-8 18-7 17-7 21-3 10-2 13h-1v-41l1-22 3-12 5-25 10-30 9-21 10-19 9-14 13-17 10-13 11-12 2 2 1 4 4-1 12-9z" fill="#5FAFD7"/>
<path transform="translate(392,267)" d="m0 0 4 1 9 10 3 4-2 4-16 13-10 9h-2l-2 4-3 1v2h-2v2l-5 5h-2l-2 4h-2l-2 4h-2v2l-8 7-2 3h-2l-2 4h-2l-2 4-7 8h-2l-2 4-4 5h-2l-2 4-9 11-28 35-6 9-11 15-6 7-1-4-2-7-3-2-5 2-4 2h-3l-1 2-5 4-4 6h-2l-2 6-7 15-5 10-6 16-5 16-2 6-2 15-3 15-3 20v74h-2l-3-5 4 1-2-28v-38l2-21 4-23 6-22 6-18 10-23 14-27 15-23 12-17 11-15v-7l3 1 9-10 7-8 5-6h2l2-4 28-28 8-7 8-8 11-9 14-13 14-11z" fill="#D73E46"/>
<path transform="translate(343,162)" d="m0 0 6 1 23 7 7 3-3 3-16 9-19 12-15 10-17 12-13 10-4 4-7 4-16 13-15 14-7 6-5 5-5 6-5 5h-2l-2 4-9 9-21 28-8 11-8 13-12 20-11 20-1-3 10-19 14-24 8-12 10-14 13-17 11-14 6-6h2l1-3h2v-2h2v-2l8-7 5-6-2-3-3-4-2-4 1-2-4 1v-2l-4 2-2-4-7 1-13 10-4-1-1-5 2-4 16-16h2v-2l14-11 12-10 16-11 18-11 16-9 21-9z" fill="#1C85B2"/>
<path transform="translate(342,546)" d="m0 0 5 2 8 5 18 4 7 4h6v2h2l-1 7-5 11-6 18-1 6h-2l-2 10-2 8-2 9-2 4-2 11h-1l1-12 1-13-3-1-5 3-17-1-20 1h-16l-4-6-2-8 1-8 9-25 7-16 5-9 5-4 3-1 2 5z" fill="#B7D983"/>
<path transform="translate(241,311)" d="m0 0 5 2 8 8 6 9 4 3-1 7-12 12-8 11-13 19h-2l-2 5-8 14-14 24-9 17-3 7-3-3-2-6 1-2-6 2-10 2-1-3-6 1-4 5-6 16-4 13-5 24-4 25-4 11h-2l-3-16 3 2v2l3-2 3-11 5-30 7-25 9-27 8-18 12-22 12-18 8-11 21-28 11-13z" fill="#C4347A"/>
<path transform="translate(426,42)" d="m0 0 32 1 3 5 10 21 5 11v2h2l1-15v-22l15 1-3 9-8 56-2 8-5-1-5-11-7-19-10-20-1 19v24l1 4-32 1-1-4 1-32h-17l3 27 2 10-17 2-1-22-5-39-3-9 1-4 18-1 1 3v22l1 4 15-1v-11l-1-12-2-3v-3zm13 3-3 2v65l1 1h6l1-1 1-40v-24l-1-3z" fill="#2087B3"/>
<path transform="translate(320,456)" d="m0 0 4 2 13 15 11 12 1 4 2 1-5 10-10 17-8 16-3 5-4 4-3 6-6 9-6 6h-6l-18-6-2-1-1-4-5 9-1-4 5-16 9-25 11-23 12-22 7-11z" fill="#6D7F95"/>
<path transform="translate(429,152)" d="m0 0h21l28 1 26 5 12 3 15 2 15 5 14 6 3 4h-13l-26 3-25 6-20 6-27 11-5 1-14-12-4-3v-3l23-12 8-2v-2h-8l-11-2 7 3 3 2-5 1-5-2-18-11-5-5 6-4zm72 8-6 1v2l16-1v-1z" fill="#241F1D"/>
<path transform="translate(405,437)" d="m0 0 9 1 8 9 4 4 1 3 3 2v2l3 1v3l3 1 2 5h2l1 5-1 2 2 1-3 8-3 6v2l4-1-1 4-3 4h-2l-2 4-13 18-14 22-12 22-1-3 11-21 16-26 3-5h2l2-4 1-4-6 3-4 3h-5l-4-4-6-1h-7l-5-2-10-7v-2l-6-2-5-3-2-2 1-6h2l1-5 2-3h2v-5l9-11 8-7h2v-2h2v-2l7-6z" fill="#8FBF40"/>
<path transform="translate(521,376)" d="m0 0h9l8 3 8 1v2l6-1 5 2 21 2 10 2 5 2 13 3 4 5-1 11-1 9v6l1 2 3-1 4 10 9 15v3l-5-1v-3h-3v7h-7l-19-7-6-3-3-4 1-17 1-12-3-3-7-2h-5l-4 2-1 3-8 4-4 4-4-1 5-3 12-10h2l-3-7-5-5v-2l-3-1-1-3h-4v2h-3v2l-7 4-3 3h-2v2l-7 4-5 5-8 5-3-1v-7l1-2 1-15 3-11z" fill="#586375"/>
<path transform="translate(660,481)" d="m0 0 2 3v14l-3 10-4 30-3 10v7l-6 16v6l4 2h11l-1 5h15l1 2-3 7-5 17-7 19-8 17-10 16-13 16-8 9-14 11-14 8-13 6-21 7-8 1-1 5-4 5-9 4-8 1-16-2-8-5-3-5v-8h2l2-5 7-4 5-1h18l9 4 5 2 1 2 12-1 9-2v-2l11-4 12-6 3-2h3v-2l5-3 7-6 4-5 5-5 6-5 1-2h2l2-6 5-8 6-15 2-8 4-2v-5l2-4 3-17 3-10 1-7-15-3v-2l-4-1-1-5 9-27 1-1 5-33 1-1 1-8 1-19z" fill="#2F2B29"/>
<path transform="translate(510,361)" d="m0 0h12l32 6 9 2 12 2 22 5 21 4 5 3 3 4-1 2v8l-4 20-1 7 2 3 6 3v5l-11-7-5-3-4 1-1-9 1-13 1-8-5-4-11-2-6-2-11-2-19-2-7-2h-4v-2l-3 1-7-2-6-2h-9l-2 2-3 11-1 16-1 5v3l6-2 7-5 2-3 5-3 2 1-4 4-12 9-2 2-5 2-5 5-9 7-4-2 2-17 1-7 2-3 1-11 2-17 3-8 2-4z" fill="#4E4A46"/>
<path transform="translate(296,609)" d="m0 0 2 2 4 11 1 1h24l18-1 11 1 6-3 3 2-1 13-3 21-4 24-1 29h-1l-1-29 1-11-1-10-4 2h-9l-8-4-20 1-8 3-2 1-9-1-3-8-1-11v-9l5-22z" fill="#C7E2A1"/>
<path transform="translate(323,538)" d="m0 0 1 3-5 10-2 6-7 15-8 21h-2v2h-2l-3 13-4 13-3 10-2 4-6 4-8 1-3-7-1-5-2-20-6 7-3 8h-1l1-11 8-31 7-20h2l2-6 4-5v6l11 3 9 3h6l7-7 6-10z" fill="#8E9799"/>
<path transform="translate(65,262)" d="m0 0 4 2 7 6 23 12 18 10 12 4 1 3-7 13-4-1-5-4-19-9-6-3-1 6-3 6v4l24 9 8 1-1 7-4 10h-4l-8-5-36-14-14-5h-7l1-7 5-13h4l7 6 18 7 1-6 3-9-16-8-10-2 1-5z" fill="#2388B4"/>
<path transform="translate(508,351)" d="m0 0h9l15 4 5 1 36 7 26 6 13 1 18 6 4 2 2 7-2 15-3 10-1 7v11l3 6 2 1v3l4 1 5 5 3 5-2 2-11-11-6-4-2-6-5-3-2-4 5-26v-9-3l-4-3-16-4-26-5-6-2-12-2-29-5-9-2h-14l-3 9-4 26-1 7-1 5-2 13-1 7h4l7-5 5-5 4-2v3l-8 6-8 7-11 8h-2v2h-4l1 4h-2v3l-3 1 1-5-10-2v-1l5-1 2-2 5-1 2-9 4-10 3-19 2-14 2-12 1-1 2-10 3-10z" fill="#2D2A29"/>
<path transform="translate(271,432)" d="m0 0v3l-8 14-8 13-12 22-8 16-5 13-12 37-3 15-2 21h-1v-21l2-21 3-10 4-17 1-10h-5l-9 9-5 11-2 5-1-2 2-13 5-16 5-14 6-13 7-16 4-7 4-4 4-5h2l1-2 6-4 8-2 4 4 1 9 6-7z" fill="#E07C6C"/>
<path transform="translate(89,425)" d="m0 0h2v14l-8 3-22 6-5 1v5l34-1v17l-5-1h-32l-28 2-8 1-1-1v-25l4-11 8-7 7-2 9 3 6 5 2 6 9-6 22-6zm-57 17-8 2-3 5 1 5h27l1-2-3-7-3-2z" fill="#2288B5"/>
<path transform="translate(291,382)" d="m0 0h3l2 5 1 3 8-2-6 8-13 16-24 33-4 3-1-10-4-3-5 2-4 2h-3l-1 2-5 4-4 6h-2l-2 6-7 15-5 10-6 16-5 16-2 6-2 15-3 15-3 20v74h-2l-3-5 4 1-2-28v-38l2-21 4-23 6-22 6-18 10-23 14-27 15-23 6-8 5-5 5-7 2-1 3-5 4-4h2v-2l10 1 5-2z" fill="#D64E5D"/>
<path transform="translate(333,266)" d="m0 0 3 1 3 3-1 5-16 15-6 6h-2l-2 4-8 7-15 16-7 7-7 8-10 10-8 10v4l-5 3-2 3h-2l-2 4-12 17-10 16-9 15-16 32-11 26-7 22-4 17-4 28-1 15v52h-1l-2-28v-24l2-23 4-24 5-20 9-28 6-12 3-10 8-15 9-19h2l1-4h2l1-5 6-11 2-4h2l2-5 11-15 8-11 4-6 3-6 4-2 1-7-4-2-3-3 1-2 6 5 13-13 7-8 21-21 22-18z" fill="#A7AB9A"/>
<path transform="translate(435,43)" d="m0 0h23l3 5 10 21 5 11v2h2l1-15v-22l15 1-3 9-8 56-2 8-5-1-5-11-7-19-10-20-1 19v24l1 4h-12l-7-1v-65h1l1 63h6l1-40v-27l-8 2z" fill="#2A8BB6"/>
<path transform="translate(244,358)" d="m0 0v3l-7 11-7 10h-2l-2 5-8 14-14 24-9 17-3 7-3-3-2-6 1-2-6 2-10 2-1-3-6 1-4 5-6 16-4 13-5 24-4 25-4 11h-2l-3-16 3 2v2l3-2 3-11 5-30 7-25 9-27 8-18 12-22 8-12 1 3-2 3-3 9v3l1 10-1 2h8l15-5 5-5 9-11 13-16z" fill="#B46585"/>
<path transform="translate(574,199)" d="m0 0h15l14 3 19 9 16 13 10 9 16 17 3 4-4-2-3-2v-2l-27-5-6-1-27-1-4-7-13-19-8-11z" fill="#F1C4AE"/>
<path transform="translate(123,624)" d="m0 0h7l8 4 7 10 2 6v7l-3 6-10 8-18 13-14 10-3 5-3 3-7-9-6-10v-1l8-2 18-11 11-8 12-8 3-3v-7l-2-4-4-1-16 8-15 9-16 10-5 6-4-2-5-9v-3l10-3 27-15 16-8z" fill="#2488B4"/>
<path transform="translate(94,224)" d="m0 0h13l11 4 13 9 10 10 6 11 1 9-5 9-6 5-3 1h-12l-12-3-13-7-9-7-6-7-4-10 1-9 4-7 8-7zm-4 9-4 4-1 4 4 6 13 10 17 11 11 5 7 1 4-3-1-6-11-11-18-13-10-6-5-2z" fill="#2388B4"/>
<path transform="translate(503,276)" d="m0 0h6v2h3l1 5-15 4-17 5-21 10-15 10-16 13-9 9-4 7 5 6-5 5-9 8-9 6-8 12-10 24-7 24-5 21-2 2 1-8 3-19 7-30 2-1 4-13 6-15 12-21 6-8h2l2-4 14-15 11-9 13-9 21-11 24-8z" fill="#2C2827"/>
<path transform="translate(51,480)" d="m0 0h18l12 3 8 6 3 4 1 3v8l-4 8-7 6-10 5-14 4-9 1h-10l-10-4-7-7-3-9v-7l3-8 4-5 10-5 7-2zm13 14-23 2-14 4-3 3v7l4 3h16l28-3 10-3 6-4 1-4-3-4-4-1z" fill="#2488B5"/>
<path transform="translate(325,460)" d="m0 0 5 5 10 11 6 7 2 10-7 8h-2l-1 4-5 9h-2l-2 5-8 10-5 5-1 2-5 1-5-3-2-6v-2l-2-2-1-5 2-16 3-8 2-3h2l1-4h2l2-4h2l2-6 4-6 4-5z" fill="#547DA3"/>
<path transform="translate(613,88)" d="m0 0h13l6 3 6 7 2 5v10l-4 13-7 11-7 9-8 7-7 3h-11l-8-6-3-6-1-9 4-16 8-16 9-10 5-4zm10 5-5 3-7 10-9 16-6 12-2 8 1 8 1 1h5l9-10 10-16 8-15 2-7v-6l-4-4z" fill="#2286B3"/>
<path transform="translate(516,52)" d="m0 0h10l7 2 6 5 4 8v17l-4 16-7 14-8 8-4 2h-10l-6-3-5-6-3-7-1-12 1-13 4-13 5-10 7-6zm8 4-5 3-5 12-6 25-1 6v12l3 5 7-1 5-11 7-25 2-10v-11l-5-5z" fill="#2488B4"/>
<path transform="translate(61,589)" d="m0 0h10l8 4 6 7 5 9 18-8 8-5 4-2 7 12 1 4-14 5-35 18-10 6-4 4-4-2-8-16-4-11v-13l4-6 6-5zm8 14-10 5-4 6 1 8 1 2 6-1 21-10 1-2-3-5-4-3z" fill="#2288B4"/>
<path transform="translate(200,574)" d="m0 0 6 2 1 17 1 23 1 6 3 20 7 11 6 6 6 3h10l5-2 2-5 3-5 2-15h1v22l1 11v20l-1 1h-7l-8-4v-2l-4-1-10-7-2-1v-2l-3-1-4-4-5-9v-5l-2-1-4-12-6 2-1 2-3-1 1-10v-45z" fill="#EBA890"/>
<path transform="translate(45,537)" d="m0 0h8l8 5 6 8 5 10 9-2 15-5 5-3h3l4 13v3l-16 4-34 12-13 5-2 4-4-2-6-16-2-8v-13l3-7 7-6zm11 14-10 2-8 5-2 4v6l2 3 7-1 21-7-1-5-4-6z" fill="#2187B4"/>
<path transform="translate(726,162)" d="m0 0 7 5 7 8 10 11 3 5-2 4-8 6-3-1 1-6 2-3-1-5-5-6-4 2-12 11-3 3h-2l1 4 4 1 6 1 1 3-10 10-4 1-2-2v-11l-5 2-7 7-11 9-1 2 4 2v2l6 2 6-2h7l1 2-10 10-4 1-7-7-9-11-7-8v-2l9-6 5-5 10-9 22-22z" fill="#2287B3"/>
<path transform="translate(34,340)" d="m0 0 69 5 6-1-1 5-5 15h-3l-5-4-10-2-2 7v5l7 3 10-1-1 8-2 8-5-3-8-5-52-26v-8zm23 16 3 3 13 7h3l1-9-1-1z" fill="#2589B5"/>
<path transform="translate(316,60)" d="m0 0 4 2 2 6v7l-5-1-4-5h-8l-4 2 2 9 6 16 2 2 5-2 1-6 1-1h5l3 11v5h-6l-8-2 7 21 3 6 6-1 4-3 2-12 2-2 3 4 4 10-1 3-15 6-17 6h-2l-2-10-10-25-9-22-3-5v-2h-2l-1-4 12-5z" fill="#2087B3"/>
<path transform="translate(150,664)" d="m0 0h9l8 4 5 4 6 8v2l5 2v3l-5 5-8 7h-5l1-5 4-10-1-6-4-5-6-1-6 4-4 6v34l-3 7-6 5-3 1h-8l-8-3-7-7-6-11-4-4 1-4 10-7 5 1v7l-4 7 1 6 5 5h7l2-1 2-7 1-31 4-8 7-6z" fill="#298AB5"/>
<path transform="translate(753,208)" d="m0 0 10 1 8 5 5 8 4 11 2 2v3l-10 6-4 1-2-1v-6l5-8v-6l-4-5-6-1-5 5-2 6-2 21-3 8-4 6-10 5h-10l-8-4-6-7-7-11 1-4 14-10 3 1-1 6-5 8v7l3 4 8 1 6-3 3-5 1-5 2-22 3-9 4-5z" fill="#2388B4"/>
<path transform="translate(666,120)" d="m0 0h7l9 3 10 8 4 4-9 11-2 2-4-1 1-16-4-4h-6l-6 5h-2l-2 4-10 13-8 13-4 9 1 7 5 2 6-5 4-6 1-9 5 2 9 7-2 4h-2l-2 4-7 10-3 5-6-2-9-6-7-8-3-9 1-8 4-10 7-12 8-9 7-5z" fill="#2286B3"/>
<path transform="translate(26,368)" d="m0 0 12 2 2 2-1 4-8 4-1 3 21 5 36 6 8-1v10l-1 7-4 1-5-2-33-5-15-2h-10v5l6 2 1 6-6 1-9-1v-12l3-19 3-15z" fill="#2689B5"/>
<path transform="translate(273,76)" d="m0 0 3 3 3 8v4h-5l-5-3h-6l5 12 18 38 3 5 4 4-3 3-10 5h-4l-1-7-11-20-8-16-8-14-3-1-2 5-2 9-4-2-6-9 2-4 31-16z" fill="#2487B3"/>
<path transform="translate(197,119)" d="m0 0 4 1 7 11 1 5-8-1-10-4-4 1-2 3 1 7 8 14 10 13 8 8 8 4 6-1 2-3v-8l-1-5 2-2 5 5 1 2v7l-3 7-5 5-6 3h-9l-12-5-12-11-8-11-4-8-2-8 1-9 3-6 7-6 10-6z" fill="#2287B3"/>
<path transform="translate(117,188)" d="m0 0h3l3 7 14 12 13 12 14 11 5 3h2l1-2v-7l-2-5v-7l7 4 7 6-2 5-11 12-9 11-10-10-13-11-14-11-12-9-9-3 2-5 9-10z" fill="#2387B3"/>
<path transform="translate(217,506)" d="m0 0 5 1v10l-6 25-5 16-3 17-1 6h-2l1-5-5-1-4 13v51l-2 6-2-1v-74l5-32 6-15 4-8z" fill="#E38C89"/>
<path transform="translate(510,361)" d="m0 0h12l32 6 9 2 12 2 22 5 21 4 5 3 3 4-1 2v8l-4 20-1 7 2 3 6 3v5l-11-7-2-1-1-3v-7l3-11 1-7v-11l-9-3-11-3-28-5-9-2-26-5-12-3h-8l-4 2-5 27-3 25 1 2 4 1-9 7-4-2 2-17 1-7 2-3 1-11 2-17 3-8 2-4z" fill="#3E3C39"/>
<path transform="translate(559,62)" d="m0 0 8 1 11 4v4l-4 6-11 30-7 20-1 5h8l8-7 4 1-5 14-1 2-11-3-19-7v-4l6-13 13-42z" fill="#2086B3"/>
<path transform="translate(429,152)" d="m0 0h21l28 1 26 5 7 2v1h-16v2l3-1h13v1l-15 2-20 5-23 7-5 1 4-3 8-2v-2h-8l-11-2 7 3 3 2-5 1-5-2-18-11-5-5 6-4z" fill="#EEC1AD"/>
<path transform="translate(370,48)" d="m0 0 4 2 1 7v10l-5-1-7-10-5-1-4 2-1 8 3 22 6 19 4 6 4 3 4-1 3-4 3-9h3l1 1v9l-4 7-4 3-3 1h-11l-6-4-7-8-5-11-3-9-1-6v-18l4-9 9-6z" fill="#2488B4"/>
<path transform="translate(154,152)" d="m0 0h3l1 7 14 15 9 11 12 13 1 3 5 2 4 2-2 4-6 5-5 5-3-3-6-9-35-35-7-4 1-4 13-11z" fill="#2387B3"/>
<path transform="translate(666,341)" d="m0 0 5 1 5 4 9 15 11 21 7 19 5 25 1 7 1 17 4 9v11l-5 10h-7l-4-6-1-3v-13l5-10-2-22-5-23-7-21-8-17-6-10-5-10-3-2z" fill="#373332"/>
<path transform="translate(139,366)" d="m0 0h1v8l-2 5v4l10 2 2 5 5 1-1 9-6 12-8 20-7 21-3 10-2 13h-1v-41l1-22 3-12 5-25z" fill="#90B6CE"/>
<path transform="translate(566,391)" d="m0 0h9l6 2 12 2 8 5-1 14-2 12-1 7v11l4 5 12 5-3 1-19-7-6-3-3-4 1-17 1-12-3-3-7-2h-5l-4 2-1 3-8 4-4 4-4-1 5-3 12-10h2l-3-7-3-2v-4z" fill="#86807D"/>
<path transform="translate(705,143)" d="m0 0 4 2 10 9 2 3-9 5-10 10-7 8-15 16-6 7-3 6-5-3-9-8v-2l6-4 3-3h2l2-4 15-16 9-11 7-9z" fill="#2388B4"/>
<path transform="translate(512,355)" d="m0 0 12 2 7 1 6 2 42 8 22 5 14 2 5 2 7 2 3 3v12l-2 9-2 13-1 5h-2l1 6h-3l-2-4 5-26v-9-3l-4-3-16-4-26-5-6-2-12-2-29-5-9-2h-14l-3 9-4 26-1 7-1 5-2 13-1 7h4l7-5 5-5 4-2v3l-8 6-8 7-6 3-4-1 1-14 3-14 4-26 2-9 2-5 2-7 4-4z" fill="#372F2D"/>
<path transform="translate(160,526)" d="m0 0 4 1 2 16v10l-2 21 1 10v7l-1 5-3-4-14-29-9-23-1-4 13-5h2l4-4z" fill="#F1C4AD"/>
<path transform="translate(283,588)" d="m0 0h8l2 5h3 3l-3 12-5 16-3 10-2 4-6 4-8 1-3-7-1-5-1-10v-11l4-7 4-2z" fill="#8EB5CF"/>
<path transform="translate(253,434)" d="m0 0 5 4 1 6-2 7-4 5-5 11h-2l-2 4-3 3h-4l1 2-13-1-1 3-4 4-4 6-5 10-3 10-3-1 5-15 7-17 12-24 4-4 4-5h2l1-2 6-4 4-1z" fill="#DB6771"/>
<path transform="translate(526,709)" d="m0 0 12 1 11 3 2 2 13-1-2 1v2h-2v2l-8 1-1 5-4 5-9 4-8 1-16-2-8-5-2-3 1-9 5-1 3-2 1-3h8z" fill="#231E1C"/>
<path transform="translate(411,330)" d="m0 0 2 1v3l6 1-3 6 5 6-5 5-9 8-9 6-8 12-10 24-7 24-5 21-2 2 1-8 3-19 7-30 2-1 4-13 6-15 12-21 6-8h2z" fill="#302B29"/>
<path transform="translate(251,356)" d="m0 0 3 2v2l3 1-5 4-2 3h-2l-2 4-12 17-10 16-9 15-16 32-11 26-7 22-4 17-4 28-1 15v52h-1l-2-28v-24l2-23 4-24 5-20 9-28 6-12 3-10 8-15 9-19h2l1-4h2l1-5 6-11 2-4h2l2-5 11-15z" fill="#87817E"/>
<path transform="translate(284,694)" d="m0 0h1l2 18 5 5 21 10 6 2 7 3 7 1 5 3 9 1 3-1 2-12 3-4 4 2 3 5-1 3-3-5-2-1-1 9-3 9-2 2-12-1-19-7-40-20-21-12 2-4 2 1 4-3 5 2 10 1z" fill="#DFE0DF"/>
<path transform="translate(532,274)" d="m0 0 41 2 3 2-3 1 1 8-9-1-4-1h-9l-15 5-14 5-6-9v-2l-4-1-1-5h-3v-2l20-1z" fill="#1B84B2"/>
<path transform="translate(543,423)" d="m0 0 2 1-10 11-3 6 1 5 9 4 18 3 11 4 3 5-6 1-37-3-13-3h-12l4-5h3v-2l8-7 8-9 4-2 3-4 5-3z" fill="#B9B4AF"/>
<path transform="translate(255,362)" d="m0 0 4 1 6 8 3 3-5-1-1-4-8 2-3 3h-2v2l-3 3-1 2h-2l-2 5-5 6-5 5-12 19-2 7-3 3-9 18-3 10-2 3h-2l-2 10-5 13-4 10-2 6h-2l-2 11-4 19-3 26v49l3 15 3 5-2 3-6-10-1-32v-22l2-23 4-24 5-20 7-20 12-27 15-30 8-13 9-14 12-17 8-9z" fill="#4F4F50"/>
<path transform="translate(257,345)" d="m0 0v3l-7 10-14 19-5 8h-2l-1 4-6 11-2 5-2 1-1 3h-2l-1 4-9 19-8 16-2 6-5 11-10 31-5 23-5 32h-1v-18l3-13 1-10 4-15 6-23 4-12 7-18 10-19 13-22 11-19h2l2-5 10-14 6-8z" fill="#E6997F"/>
<path transform="translate(159,513)" d="m0 0 6 2 4 7 1 38v24l1 13v13l-3-4-4-8v-17l-1-8 2-20v-14l-1-12-8 1-3 1-1 3-4 1-5 1v-2h2l1-7 3-5 8-5h2z" fill="#EAA890"/>
<path transform="translate(688,449)" d="m0 0h1l1 25 2 6 3 8 8 37v12l-4 16-8 17-8 11-2 1 3-9 4-11 5-21 1-9v-14l-2-26v-7h-17v-1h13z" fill="#393534"/>
<path transform="translate(405,429)" d="m0 0 8 6 28 28 8 10 1 8-3 3-2 4-6 4-5 1 3-7 3-6v-12h-2l-3-5-2-1-1-3-6-5v-3l-4-2-8-10-9-1-4 2-3 4h-2v2h-2v2l-11 9-5 4h-2l-2 4-15 20-5 6-5-2 5-4 9-10 8-10 7-9 14-14 5-6z" fill="#A8D06F"/>
<path transform="translate(620,225)" d="m0 0h7l8 3 13 5 7 8v2l-9 1-17-3-25-1 1-8 6-6z" fill="#EAA890"/>
<path transform="translate(419,520)" d="m0 0 1 2-3 8-5 5-7 15h-2l-1 5-8 16-5 13-4 9-10 30-4 14h-2l-1 10-4 16-5 26-1 8h-1v-10l4-27 6-25 3-11 2-10 1-3h2l2-12 2-5h2l1-7 5-10 4-10 14-26z" fill="#3A3736"/>
<path transform="translate(569,406)" d="m0 0 8 1 5 2 3 3-2 27 2 5 8 4-3 1-16-6-3-4 1-19-4-1-2-1h-12l5-5 5-1 1-4z" fill="#C1C8C6"/>
<path transform="translate(323,449)" d="m0 0h2l-2 4-1 3-5 5-12 21-10 19-9 20-4 11h-2l-3 9-6 15-4 13-5 16-5 15-4 9h-2l-1 2 1-6 3-7 4-14 3-15 6-13 8-20 6-13 6-15 4-9 9-17 11-19z" fill="#E17E6D"/>
<path transform="translate(203,639)" d="m0 0 3 1 2 6 3 7 3 9 2 2v3l4 2 3 3v2l5 2 8 6 3 1 3 3 5 2h7l1-15h1l3 22v7l-3 1-17-12-14-12-20-20-9-11-2-3 4-1 2-4z" fill="#F0C6B1"/>
<path transform="translate(695,348)" d="m0 0 7 4 5 4 13 4 5 2h3l2-4 6 11 1 9-2 1-23-8-10-3-6-12z" fill="#B7D983"/>
<path transform="translate(266,607)" d="m0 0h1l1 16 2 10 3 6-2 2-8 2-4 9-1 4-1 23h-1l-2-11-1-18 2-25 4-10z" fill="#BAB4AF"/>
<path transform="translate(571,399)" d="m0 0 15 2 7 4v11l-2 18-1 7 2 5 21 8-3 1-19-7-6-3-3-4 1-17 1-12-3-3-7-2h-5l-4 2-1 3-8 4-4 4-4-1 5-3 12-10h3l1-5z" fill="#8E9698"/>
<path transform="translate(659,481)" d="m0 0 1 2-1 3-1 19-1 8-1 1-5 33-3 8-7 20 1 5 3 1v2l13 2 2 1v7l-4 14h-1v-10l2-7-9-2-9-3-4-5 1-8 5-13 5-16 6-31 2-7h2l1-21z" fill="#BFC2C0"/>
<path transform="translate(548,420)" d="m0 0 2 1-7 8-4 7v4l6 3 18 4 11 4 5 5 1 7-3 1h-19l-22-3v-1h11l23 2 3-1-2-4-7-1-9-3-13-2-10-5-1-5 5-8 9-10z" fill="#C0C7C5"/>
<path transform="translate(653,612)" d="m0 0h1v8l-3 9-4 4-2 10-4 9-5 9-4 7h-2l-2 4-6 5-5 5-4 5-8 7h-3v2l-22 11-7 1 2-2 16-8h2v-2l6-3 3-3h2v-2h2v-2l6-5 7-8 7-7 3-4 2-5 7-12 7-16 3-1 1-6z" fill="#BEC1BE"/>
<path transform="translate(504,457)" d="m0 0h2l-1 5h-2l-2 5-12 12-4 5-7 6-1 3-7 6-6 9-5 5-4 5h-2l-1 4h-2l-2 4-7 9-5 9-3 4-5 9-1-4 3-5 3-7 14-20 4-6h2l2-4 4-6h4l1-4h2l2-4 4-7 4-2 7-10 15-16z" fill="#BDC1BD"/>
<path transform="translate(236,436)" d="m0 0 1 2-11 20-7 16-6 13-7 19-4 14-2 15-3 15-3 20v74h-2l-3-5 4 1-2-28v-38l2-21 4-23 6-22 6-18 10-23 14-27z" fill="#B35980"/>
<path transform="translate(657,160)" d="m0 0 5 2 9 7-2 4h-2l-2 4-7 10-3 5-6-2-8-5-1-7 6 2 6-5 4-6z" fill="#2D8CB6"/>
<path transform="translate(295,230)" d="m0 0 2 3-1 4-12 6-13 9-5 5h-2v2l-8 7-3 3h-2l-2 4-6 4-9 10h-2v2l-6 5-4 5-1 3h-2v2h-2l-2 4-13 16-5 5 2-5 14-18 8-10 8-8 1-2h2l2-4 3-1 2-4 5-5h2l1-3 8-7 8-8 8-7 18-14z" fill="#537DA3"/>
<path transform="translate(530,383)" d="m0 0 17 6-2 5-4 2-3 3h-2v2l-7 4-2 3h-5l-1-13 3-10z" fill="#86817F"/>
<path transform="translate(429,152)" d="m0 0h21l3 3-5 2h-3v2l-2 1-1 5 1 3-2 1 7 3 3 2-5 1-5-2-18-11-5-5 6-4z" fill="#DFE0DF"/>
<path transform="translate(660,481)" d="m0 0 2 3v14l-3 10-4 30-3 10v7l-6 16v6l4 2h11l-1 5 2 1-1 5-1-4-15-3v-2l-4-1-1-5 9-27 1-1 5-33 1-1 1-8 1-19z" fill="#403F3F"/>
<path transform="translate(321,458)" d="m0 0 1 2h3l2 8h-2l-2 4-5 8-2 4-4 4h-2l-1 4h-2l-2 6-4 5h-2l-2 7h-2l-2 4 1-6 7-16 4-7 7-13z" fill="#716299"/>
<path transform="translate(169,371)" d="m0 0 1 4h-2l-2 9-1 2h-2l-1 6-4 9-13 26-9 26-4 13-2 7-1 17h-1v-23l3-12 7-19 6-16 8-19 5-10 3-3z" fill="#4C80A0"/>
<path transform="translate(320,456)" d="m0 0 4 2 1 2-4-1-12 20-6 12-7 15-9 23-8 23-5 9-1-4 5-16 9-25 11-23 12-22 7-11z" fill="#87817E"/>
<path transform="translate(503,276)" d="m0 0h6v2h3l1 5-15 4-17 5-6 2 1-4-6-2v-2l24-8z" fill="#2E2B2A"/>
<path transform="translate(608,428)" d="m0 0 6 2 8 14 3 5v3l-5-1v-3h-3v7l-6-1-3-1-4-7 2-13z" fill="#514E4C"/>
<path transform="translate(168,534)" d="m0 0h1l1 26v24l1 13v13l-3-4-4-8v-17l-1-8 3-25z" fill="#BAAEA4"/>
<path transform="translate(519,705)" d="m0 0h18l9 4 5 2 1 2 12-1 8-1-2 5-10 2 2-1v-2l-11 1-2-2-11-3-12-1-10 1h-2v3l-6 3h-2l-2 6h-1v-8h2l2-5 7-4z" fill="#322E2D"/>
<path transform="translate(215,473)" d="m0 0 1 3-10 25-6 21-5 24-2 15-1 13v38l1 28-5-2-2-3 5 1-1-23-1-2v-35l1-4 2-22 5-26 2-6 2-11 7-19 5-12z" fill="#494541"/>
<path transform="translate(422,447)" d="m0 0 6 3 13 13 8 10 1 8-3 3-2 4-6 4-5 1 3-7 3-6v-12h-2l-3-5-2-1-1-3-6-5v-3l-4-2z" fill="#A5CE6A"/>
<path transform="translate(536,428)" d="m0 0 2 1-10 13-2 9 9 3 4 2 6 1v2h-9l-15-3h-12-3l4-4h3v-2l8-7 8-9 4-2z" fill="#A2A897"/>
<path transform="translate(188,475)" d="m0 0h2l-3 11-6 21-4 19-3 26v49l3 15 3 5-2 3-6-10-1-32v-22l2-23 4-24 5-20z" fill="#505154"/>
<path transform="translate(569,406)" d="m0 0 8 1 5 2 3 3-2 27 2 5 8 4-3 1-6-2v-2l-5-2-1-1v-29l-11-1-3-3z" fill="#BAB4AF"/>
<path transform="translate(719,233)" d="m0 0 3 1-1 6-5 8v7l3 4 6 2-3 1h-8l-10-15 1-4z" fill="#318DB7"/>
<path transform="translate(505,454)" d="m0 0 3 1-11 9-7 7-7 8-8 11h-3l-1 4-5 7h-2l-1 4-4 1-3 5-3 4h-2l-2 5-5 6-1-2 3-4 2-5 4-6h2l2-5h4l1-4 2-4 4-2 4-7 3-1 2-5h2l1-3h3l1-5 3-1 1-3 3-1 6-7z" fill="#474543"/>
<path transform="translate(674,121)" d="m0 0 6 1 9 7 7 5-4 6-7 8-4-1 1-16-4-4-5-1z" fill="#2F8CB6"/>
<path transform="translate(315,287)" d="m0 0 3 1 1 3-4 4-3 5-4 1-8 7h-2v2l-5 4-1 2h-3l-2 4-1-3 1-4 2 1 1-1 1-4 3-1 2-4h2v-3l4-1 1-4 5-4 4-4z" fill="#90BF43"/>
<path transform="translate(659,481)" d="m0 0 1 2-1 3-1 19-1 8-1 1-5 33-3 8-7 20 1 5 3 1v2l13 2 2 1v7l-2-4v-2l-12-2-6-3-2-2 2-10 6-17 2-12h2l2-17 4-27 1-13z" fill="#8C8D88"/>
<path transform="translate(770,217)" d="m0 0 5 3 5 13 2 2v3l-10 6-4 1-2-1v-6l5-8v-6l-3-5z" fill="#2584AF"/>
<path transform="translate(115,693)" d="m0 0 5 1v7l-4 7 1 9-2 1-3-2-4-8-4-4 1-4z" fill="#4590B4"/>
<path transform="translate(197,119)" d="m0 0 4 1 7 11 1 5-8-1-10-4h-4l-1-2-4 1 5-4 9-6z" fill="#2F8AB3"/>
<path transform="translate(519,283)" d="m0 0h25l8 1-4 2-22 8-3 1-6-9v-2z" fill="#65B0D6"/>
<path transform="translate(397,556)" d="m0 0 1 3-10 21-10 27-3 9h-2l-2 13-8 32-2 10h-1l1-11 6-25 3-11 2-10 1-3h2l2-12 2-5h2l1-7 5-10 4-10z" fill="#575758"/>
<path transform="translate(688,449)" d="m0 0h1l1 25 2 6 3 8 3 14-1 9-1 24-1 5h-1v-22l-2-26v-7h-17v-1h13z" fill="#727375"/>
<path transform="translate(319,331)" d="m0 0v3l-17 17-4 7-7 8-1 5-3-1-1 4h-3l-2 5-6 5-1-2-2 2-1-6 3 1 9-10 7-8 5-6h2l2-4z" fill="#D6656B"/>
<path transform="translate(653,612)" d="m0 0h1v8l-3 9-4 4-2 10-4 9-5 9-4 7h-2l-2 4-5 3 2-4 7-11 7-14 9-21z" fill="#4E5256"/>
<path transform="translate(688,223)" d="m0 0 4 2v2l6 2 6-2h7l1 2-10 10-4 1-7-7-6-8z" fill="#5097B9"/>
<path transform="translate(370,48)" d="m0 0 4 2 1 7v10l-5-1-7-10-9-3 3-3z" fill="#3790B8"/>
<path transform="translate(414,341)" d="m0 0 4 2 3 4-5 5-9 8-9 6-3 3 2-5 8-12z" fill="#E0836C"/>
<path transform="translate(236,436)" d="m0 0 1 2-11 20-7 16-6 13-7 19-4 14-4 16h-1l1-9 5-19 6-18 10-23 14-27z" fill="#C5337A"/>
<path transform="translate(511,161)" d="m0 0 16 1 11 3v1h-23l-12 2h-15l-6 2h-6l3-2 21-5h11z" fill="#362E2C"/>
<path transform="translate(570,404)" d="m0 0h9l7 3 2 3v10l-2 18 3 8-4-1-3-4 1-17 1-12-3-3-12-3z" fill="#A3A997"/>
<path transform="translate(571,125)" d="m0 0 4 1-5 14-1 2-11-3-5-2v-2l-1-3h2l1-3v3h8z" fill="#3E92B9"/>
<path transform="translate(714,198)" d="m0 0 4 3 9 1 1 3-10 10-4 1-2-2v-14z" fill="#4094BA"/>
<path transform="translate(265,581)" d="m0 0h1v14l3 6-1 6-6 5-3 5-2 6h-1l1-11z" fill="#A3A997"/>
<path transform="translate(553,387)" d="m0 0 3 1 1 3 4 4 6 7v4l-13 10-3 3h-3l-2 4-5 2-1-3h3l2-5h2l2-5 5-4 9-3-2-7h-2l-3-5-1-4-4-1z" fill="#322E2D"/>
<path transform="translate(419,520)" d="m0 0 1 2-3 8-5 5-7 15h-2l-1 5-8 16-5 13-4 8-2-1 8-20 6-12 2-7 8-14z" fill="#35312F"/>
<path transform="translate(170,212)" d="m0 0 7 4 7 6-2 5-7 8h-3-3l3-4v-7l-2-5z" fill="#4094BA"/>
<path transform="translate(425,557)" d="m0 0h2l-1 5-9 19-6 12h-2l-2 5-3 4 1-6 4-8 5-13 8-15h2z" fill="#B1B5B3"/>
<path transform="translate(335,112)" d="m0 0 4 4 4 10-1 3-13 5-8-2 1-2 6-1 4-3 2-12z" fill="#4B92B6"/>
<path transform="translate(316,60)" d="m0 0 4 2 2 6v7l-5-1-4-5h-8l-5 2-1-5z" fill="#3E83A5"/>
<path transform="translate(318,89)" d="m0 0h5l3 11v5h-6l-10-4 2-4 4-1 1-6z" fill="#3B93BB"/>
<path transform="translate(369,624)" d="m0 0 1 4-6 23-4 21-2 15v31l-2-4v-34l4-24 4-20z" fill="#939781"/>
<path transform="translate(545,168)" d="m0 0 15 6 3 4h-13l-11 1h-9l3-3 9-3z" fill="#4B4846"/>
<path transform="translate(390,567)" d="m0 0 1 2-7 17-3 8h-2l-4 17h-2l-2 13-3-1 3-11 2-7h2l1-9 6-17 4-8 3-1z" fill="#97B861"/>
<path transform="translate(574,199)" d="m0 0h15l11 2-3 2-9 1-3 2-1 7-4-2-6-9z" fill="#DFE0DF"/>
<path transform="translate(183,496)" d="m0 0h1l-1 9-5 23-3 31v35l1 7-2 2-1-2v-49l4-31z" fill="#373330"/>
<path transform="translate(456,473)" d="m0 0 2 4-2 3h-3l-2 4-6 7-3 4h-2v2h-2l-1 5-4 6-4 2-1 2h-2l-2 5-4 3 2-4 10-14 2-3h2l2-4 4-6 3-2 3-5z" fill="#403D3A"/>
<path transform="translate(350,490)" d="m0 0h2l-2 9-6 8-9 16-11 21-4 8-2-2 9-17 8-16 10-17z" fill="#8FC040"/>
<path transform="translate(459,505)" d="m0 0 2 1-4 6-8 10-1 2h-2l-3 9-10 15-5 9-1-4 3-5 3-7 14-20 4-6h2l2-4z" fill="#929696"/>
<path transform="translate(396,402)" d="m0 0 2 4v4l4 1 4 6 9 7-1 3-4-2-15-12-3-3z" fill="#423F3F"/>
<path transform="translate(438,355)" d="m0 0 2 1-36 36-2-1 9-10 7-8 9-9z" fill="#5B5957"/>
<path transform="translate(189,336)" d="m0 0 1 2-8 13-12 20-11 20-1-3 10-19 14-24z" fill="#1A84B2"/>
<path transform="translate(519,705)" d="m0 0h18v1l-14 1-5 4h-4v3l-6 3h-2l-2 6h-1v-8h2l2-5 7-4z" fill="#3D3A39"/>
<path transform="translate(621,675)" d="m0 0 2 1-5 5-5 6-8 7h-3v2l-22 11-7 1 2-2 16-8h2v-2l8-3 6-4z" fill="#828487"/>
<path transform="translate(589,450)" d="m0 0 9 3 11 4v4l-9-1-12-5-2-4z" fill="#FEFEFE"/>
<path transform="translate(255,364)" d="m0 0 5 1 5 6 3 3-5-1-1-4-8 2-3 3h-2v2l-3 3-1 2h-2l-2 5-5 4 2-5 10-13z" fill="#383331"/>
<path transform="translate(654,505)" d="m0 0h1v8l-5 28h-2l-1 12-3 1 2-11 6-31z" fill="#BFC4C2"/>
<path transform="translate(660,481)" d="m0 0 2 3v14l-3 10-4 30-2 2 2-17 2-18 1-19z" fill="#322E2D"/>
<path transform="translate(172,567)" d="m0 0h1l1 34 3 15 3 5-2 3-6-10-1-40z" fill="#494643"/>
<path transform="translate(380,455)" d="m0 0 1 2h-2l-1 4h-2l-2 4-15 20-5 6-5-2 5-4 9-10 8-10 7-9z" fill="#C4DEA0"/>
<path transform="translate(504,457)" d="m0 0h2l-1 5h-2l-1 3-8 7-9 9-4-1 7-7 7-8z" fill="#9B9E9D"/>
<path transform="translate(203,447)" d="m0 0 1 2-4 8h-2l-2 10-5 13-4 10-2 6-1-4 5-15 1-6 7-16 4-2z" fill="#423E3D"/>
<path transform="translate(526,320)" d="m0 0h22l16 2 4 2-9 1-10-2h-11l-5-1-24 1v-1z" fill="#555454"/>
<path transform="translate(484,281)" d="m0 0 2 1-4 2 2 2 6 2-3 2-12 4 1-4-6-2v-2z" fill="#363332"/>
<path transform="translate(603,240)" d="m0 0h26l17 3 10-1 11 11h-3l-4-3v-2l-27-5-6-1-24-1z" fill="#BAB4AF"/>
<path transform="translate(617,448)" d="m0 0h3l1 3 4 1 1-2 5 8v2l-6-2h-8l-4-3h4z" fill="#ADB0AE"/>
<path transform="translate(644,572)" d="m0 0h1l2 6 3 1h11l-1 5 2 1-1 5-1-4-15-3-2-5z" fill="#332F2D"/>
<path transform="translate(557,425)" d="m0 0 3 1 1 5-4 4-6 1-3-2 1-5 4-3z" fill="#FEFEFE"/>
<path transform="translate(653,612)" d="m0 0h1v8l-3 9-4 4-3 9h-2l-3 9-4 8-1-3 9-19z" fill="#8F918E"/>
<path transform="translate(200,526)" d="m0 0 1 4-4 20-3 18-2 1 1-16 3-17h2z" fill="#BA5080"/>
<path transform="translate(404,749)" d="m0 0 9 5 10 6v2l-14-2-5-5h3l-3-3z" fill="#5F5D5C"/>
<path transform="translate(170,560)" d="m0 0h1l1 22v30h-1l-2-28v-23z" fill="#7D7B7C"/>
<path transform="translate(695,493)" d="m0 0 2 4 1 8-1 6-1 24-1 5h-1v-22l-1-18h1z" fill="#9D9F9B"/>
<path transform="translate(695,350)" d="m0 0 3 4 4 8 11 7 13 5-3 1-13-5-9-3-5-11z" fill="#D4EAB9"/>
<path transform="translate(462,195)" d="m0 0h6l1 2-19 8-4-1-4-4h7l9-3h4z" fill="#312E2D"/>
<path transform="translate(318,551)" d="m0 0 1 2-9 19-8 21h-2l-1 2 1-6 5-13 8-16z" fill="#A3A997"/>
<path transform="translate(500,465)" d="m0 0v3l-7 8-7 6-6 7-5 3h-2l-2 4v-3l1-3 4-2 5-7 5-2z" fill="#B8BCB8"/>
<path transform="translate(463,496)" d="m0 0h2l-1 4-3 5-2 1-3 5-3 4h-2l-2 5-5 6-1-2 3-4 2-5 4-6h2l2-5h4l1-4z" fill="#444342"/>
<path transform="translate(142,513)" d="m0 0h1l-1 10-4 11h-2l-3-16 3 2v2l3-2z" fill="#AB7A8F"/>
<path transform="translate(215,473)" d="m0 0 1 3-10 25-4 13h-2l1-7 7-19 5-12z" fill="#45413D"/>
<path transform="translate(538,425)" d="m0 0 3 1-6 4-4 4-7 6-7 8-4 2v2l-3-1 10-10 1-4h4v-3l7-4z" fill="#454342"/>
<path transform="translate(133,450)" d="m0 0 2 3-1 8-3 7-1 5-1 17h-1v-23l3-12z" fill="#808E9A"/>
<path transform="translate(624,670)" d="m0 0 2 1-21 21-5 3-2-1 4-4h2v-2h2v-2l6-5 5-5z" fill="#BCBEBB"/>
<path transform="translate(441,441)" d="m0 0h3l6 11 5 7-4-2-10-8-5-5h4z" fill="#6F6E6F"/>
<path transform="translate(543,708)" d="m0 0 4 2 4 1 1 2 12-1 8-1-2 5-10 2 2-1v-2l-11 1-8-7z" fill="#3F3D3D"/>
<path transform="translate(383,592)" d="m0 0 2 1-7 21-4 10h-2l1-8h2l2-9 5-14z" fill="#35302E"/>
<path transform="translate(655,514)" d="m0 0h1v9l-4 25-2 5-2 9-3 2 2-9 3-8z" fill="#4E5053"/>
<path transform="translate(536,428)" d="m0 0 2 1-5 6-8 7-8 9-3 3h-5l1-2h3v-2l8-7 8-9 4-2z" fill="#7E7C7D"/>
<path transform="translate(217,419)" d="m0 0 1 2-4 5-10 21-3 6-3 1 2-6 13-26z" fill="#4D4D4D"/>
<path transform="translate(357,704)" d="m0 0h1v8h2l4 14 1 4 2 1-1 4-4-4-4-11-1-7z" fill="#434141"/>
<path transform="translate(645,585)" d="m0 0 10 1 3 1 1 2v8l-3 10h-1v-10l2-7-9-2-3-1z" fill="#BEC0BD"/>
<path transform="translate(520,438)" d="m0 0 1 3-10 10-2 3-5 2-6 5-2-1 3-3h2v-2l8-7 7-6z" fill="#36312F"/>
<path transform="translate(372,413)" d="m0 0h1l1 9-6 25-2 2 1-8 3-19z" fill="#C3C6C5"/>
<path transform="translate(568,279)" d="m0 0 4 1 2 2v5l-9-1-6-2 3-2 6-1z" fill="#616770"/>
<path transform="translate(509,729)" d="m0 0h4v2l9-1 3 2h10l3-2 5 1-2 2-11 2-16-2-5-3z" fill="#4B4A49"/>
<path transform="translate(700,515)" d="m0 0 2 4 1 6v12l-2 10h-1z" fill="#8F969A"/>
<path transform="translate(255,362)" d="m0 0 4 1-4 2-10 12-6 8h-2l2-5 9-12z" fill="#515253"/>
<path transform="translate(479,482)" d="m0 0v3l-4 5h-3l-1 4-5 7h-2l-1 4h-2l2-5 6-9 2-4 6-3z" fill="#696A6B"/>
<path transform="translate(142,430)" d="m0 0 1 3-7 20h-2l1-9 4-12z" fill="#6C8297"/>
<path transform="translate(440,434)" d="m0 0 5 1-3 1 1 5h-2l-1 5-7-3-5-5h5v2l7 1-1-3z" fill="#444242"/>
<path transform="translate(377,392)" d="m0 0 1 4v12l-3 10-2 1v-11z" fill="#747373"/>
<path transform="translate(516,322)" d="m0 0h17v1l-11 1-15 3-7-2 4-2z" fill="#383533"/>
<path transform="translate(169,371)" d="m0 0 1 4h-2l-2 9-1 2h-2l-1 6-4 7-1-4 2-5z" fill="#617E9B"/>
<path transform="translate(300,593)" d="m0 0 1 4-6 18-1 4h-2l-1 2 2-11 5-15h2z" fill="#BAB5B0"/>
<path transform="translate(174,553)" d="m0 0h1v41l1 7-2 2-1-2v-44z" fill="#302B2A"/>
<path transform="translate(734,366)" d="m0 0 2 3 1 9-2 1-9-3 4-2v-2h2z" fill="#D4E9BA"/>
<path transform="translate(422,560)" d="m0 0 1 3-4 9-2 4h-2l-3 13-2 3h-2l3-10 7-14z" fill="#8A8C8B"/>
<path transform="translate(456,473)" d="m0 0 2 4-2 3h-3l-2 4-5 5-6 4 2-4 3-2 3-5z" fill="#575757"/>
<path transform="translate(419,520)" d="m0 0 1 2-3 8-5 5-2 4h-2l-2 5-3 5-1-2 8-14z" fill="#484543"/>
<path transform="translate(553,387)" d="m0 0 3 1 1 3 4 4 6 7v4l-4 2-2-10h-2l-3-5-1-4-4-1z" fill="#3E3C3B"/>
<path transform="translate(586,329)" d="m0 0 10 3 5 2v2l3 1-9 1-1-3h-4v-3h-3z" fill="#474544"/>
<path transform="translate(514,706)" d="m0 0 3 1-4 1v2l-2 2-1 4-4 1-2 6h-1v-8h2l2-5z" fill="#5D5B59"/>
<path transform="translate(595,695)" d="m0 0 3 1h-2l-1 4-15 7-7 1 2-2 16-8h2v-2z" fill="#A6A8A6"/>
<path transform="translate(320,456)" d="m0 0 4 2 1 2-4-1-10 16h-2l2-6z" fill="#888381"/>
<path transform="translate(175,603)" d="m0 0 2 2 4 12 1 5-3-1-4-6z" fill="#2C2928"/>
<path transform="translate(486,162)" d="m0 0h25v1l-15 2-12 2 1-4z" fill="#D0848C"/>
<path transform="translate(402,751)" d="m0 0 5 2v2l-2 1 3 2-4 1-10-3 3-1 1-2h3z" fill="#373434"/>
<path transform="translate(632,438)" d="m0 0h6l5 5 4 6-2 2-11-11z" fill="#464443"/>
<path transform="translate(383,388)" d="m0 0h2l-3 9-3 8-2-3 1-10 3-1z" fill="#474442"/>
<path transform="translate(647,365)" d="m0 0 7 6 7 9-3 1-4-5-4-2-3-5z" fill="#444040"/>
<path transform="translate(511,161)" d="m0 0 16 1v1l-23 2-9 1 1-2 4-1h11z" fill="#524F4B"/>
<path transform="translate(425,557)" d="m0 0h2l-1 5-8 16-2 1 1-5 4-9z" fill="#BEC3C0"/>
<path transform="translate(524,442)" d="m0 0 1 2-3 7h-2l-2 4-9 1h-3l2-2 8-1 2-4z" fill="#919998"/>
<path transform="translate(257,364)" d="m0 0 4 2 4 5 3 3-5-1-1-4-8 2-3 2 2-5h2z" fill="#3D3A39"/>
<path transform="translate(503,276)" d="m0 0h6v2h3l1 5-4-2-9-1-6-1 4-2z" fill="#51555A"/>
<path transform="translate(173,601)" d="m0 0 2 2 1 12 4 6-2 3-4-6-1-5z" fill="#433E3B"/>
<path transform="translate(406,538)" d="m0 0v3l-9 17-4 7-1-3 11-21z" fill="#8EBE41"/>
<path transform="translate(514,417)" d="m0 0h2v3l-8 6-8 7h-3l4-5 6-4 5-5z" fill="#322E2C"/>
<path transform="translate(408,539)" d="m0 0 1 3-4 8h-2l-1 5-3 5-2-1 2-7 5-6z" fill="#3A3635"/>
<path transform="translate(624,350)" d="m0 0h6l6 4-3 1-5-2h-4l-8 4-3-2v-2l7-1z" fill="#50504F"/>
<path transform="translate(523,703)" d="m0 0h15l5 3v2l-6-2h-20l1-2z" fill="#8E9190"/>
<path transform="translate(369,624)" d="m0 0 1 4-6 23h-1v-9l2-8z" fill="#8F927C"/>
<path transform="translate(382,380)" d="m0 0h3l2 1-1 6-5 5-2-1z" fill="#342F2D"/>
<path transform="translate(204,510)" d="m0 0 2 1v5l-1 3-3 12-2 1 1-12z" fill="#D46A74"/>
<path transform="translate(458,510)" d="m0 0h2l-2 4-3 4h-2l-1 4h-2l-2 4-4 4 1-4 1-2h2l2-5z" fill="#BEC2BF"/>
<path transform="translate(655,242)" d="m0 0 7 6 5 6-4-2-3-2v-2l-10-2v-2z" fill="#C1C2C1"/>
<path transform="translate(131,401)" d="m0 0h1l-1 13-2 16h-1v-17z" fill="#C6CCCA"/>
<path transform="translate(640,579)" d="m0 0 5 2v2l13 2 2 1v7l-2-4v-2l-12-2-6-3z" fill="#8F918D"/>
<path transform="translate(559,714)" d="m0 0h5l-2 1v2h-2v2l-8 1v-2l-2-1z" fill="#363332"/>
<path transform="translate(191,612)" d="m0 0h1l1 28-5-2-2-3 5 1z" fill="#515050"/>
<path transform="translate(653,612)" d="m0 0h1v8l-3 9-3 1 1-8z" fill="#666868"/>
<path transform="translate(192,616)" d="m0 0h1l1 7v21h-2l-3-5 4 1-1-10z" fill="#857479"/>
<path transform="translate(486,472)" d="m0 0 3 1-12 12-2 1 1-5h2l1-3h3l1-5z" fill="#423F3D"/>
<path transform="translate(471,457)" d="m0 0 1 4-10 10-5 2 6-7z" fill="#5E5C5A"/>
<path transform="translate(49,448)" d="m0 0 3 1-1 5-1 1h-28v-1l27-1z" fill="#8CB9D0"/>
<path transform="translate(701,426)" d="m0 0 3 3v18l-2-2z" fill="#6B6A66"/>
<path transform="translate(499,279)" d="m0 0h7l6 2-1 3-14-2v-2z" fill="#373332"/>
<path transform="translate(390,567)" d="m0 0 1 2-5 12-2 1-1-5 3-6 3-1z" fill="#97BD5B"/>
<path transform="translate(373,605)" d="m0 0h3l-1 6h-2l-2 13-3-1 3-11z" fill="#92B45A"/>
<path transform="translate(401,417)" d="m0 0 9 3 5 4-1 3-4-2-9-7z" fill="#434140"/>
<path transform="translate(534,401)" d="m0 0 2 1-4 4-12 9-4 2 2-4 9-6 2-3z" fill="#3E3B39"/>
<path transform="translate(512,180)" d="m0 0 7 1v1l-20 5h-2l-1-3 12-2z" fill="#434242"/>
<path transform="translate(316,93)" d="m0 0 2 4-2 6-6-2 2-4 4-1z" fill="#6FB1D3"/>
<path transform="translate(673,485)" d="m0 0h2v11l-3 1-2-7h2z" fill="#3F3C3C"/>
<path transform="translate(193,333)" d="m0 0 1 2-11 17-2 1 2-6 6-9z" fill="#537DA3"/>
<path transform="translate(672,398)" d="m0 0 3 3 4 8h-2v-2l-3 1-4-7v-2z" fill="#403E3C"/>
<path transform="translate(305,64)" d="m0 0 7 3v1l-9 2-3 1-1-5z" fill="#62A6C5"/>
<path transform="translate(453,680)" d="m0 0 4 2 5 4v2l4 2 4 3v2l-4-2-10-9z" fill="#FEFEFE"/>
<path transform="translate(416,426)" d="m0 0 4 2 4 3v4l-4-2-6-5z" fill="#3D3A38"/>
<path transform="translate(564,136)" d="m0 0h6l-1 6-8-2 1-3z" fill="#588FB2"/>
<path transform="translate(463,496)" d="m0 0h2l-1 4-3 5-4 3h-2v2l-3 1v-2h2l2-5h4l1-4z" fill="#3D3937"/>
<path transform="translate(662,275)" d="m0 0 9 1 14 3 3 3-7-1-19-5z" fill="#B8DA84"/>
<path transform="translate(554,129)" d="m0 0 1 3 7 1-2 1v2h-3v2l-4-2v-1l-1-3h2z" fill="#73B4D5"/>
<path transform="translate(509,729)" d="m0 0h4v2l9-1 3 3h-11l-5-3z" fill="#424141"/>
<path transform="translate(505,716)" d="m0 0 3 2v8l-2 2-2-3z" fill="#322F2E"/>
<path transform="translate(543,708)" d="m0 0 4 2 4 1 1 2h9l-2 2-8 1-8-7z" fill="#8C8D8F"/>
<path transform="translate(633,659)" d="m0 0 1 2-3 5-2 5-6 4 2-4 7-11z" fill="#858787"/>
<path transform="translate(654,505)" d="m0 0h1v8l-2 11-2-3 2-12z" fill="#BEC1BE"/>
<path transform="translate(593,449)" d="m0 0 5 1 12 4-4 1-8-1-1-3z" fill="#CCCECC"/>
<path transform="translate(621,444)" d="m0 0 3 3 1 5-5-1v-3h-2v-3z" fill="#6A6C70"/>
<path transform="translate(649,629)" d="m0 0 2 1-1 6-2 3h-2v-6z" fill="#3E3B3C"/>
<path transform="translate(660,481)" d="m0 0 2 3-1 8-3 3v-9z" fill="#3C3939"/>
<path transform="translate(396,437)" d="m0 0 1 2-7 8-7 7v-3l9-9z" fill="#BADA8B"/>
<path transform="translate(139,366)" d="m0 0h1v8l-4 10-1-3z" fill="#A2BECF"/>
<path transform="translate(657,599)" d="m0 0h1v10l-1 5h-2l-1 2 1-9z" fill="#3C3A39"/>
<path transform="translate(520,441)" d="m0 0 3 1-8 8h-2v2l-3-1z" fill="#505255"/>
<path transform="translate(557,410)" d="m0 0 3 1-9 8h-3l-2 4-1-2 2-3 3-1 1-3 6-2z" fill="#545657"/>
<path transform="translate(266,393)" d="m0 0 1 3-3 1-2 4-6 8v-3l8-11z" fill="#D73C45"/>
<path transform="translate(711,257)" d="m0 0h2l1 2 1-2 9 3 1 2h-11z" fill="#7BB4D1"/>
<path transform="translate(381,100)" d="m0 0v3 6h-2v6h-5l4-8 2-6z" fill="#82B9D4"/>
<path transform="translate(376,610)" d="m0 0h1l-1 9-2 5h-2l1-8h2z" fill="#3C3735"/>
<path transform="translate(770,217)" d="m0 0 5 3 2 5-1 3h-2l-3-8-2-2z" fill="#597083"/>
<path transform="translate(560,410)" d="m0 0h4v2l-8 4-4 4-4-1 5-3z" fill="#ABA9A6"/>
<path transform="translate(768,219)" d="m0 0 4 1 1 3v8l-1 5-4-1 3-5v-6z" fill="#73A9C1"/>
<path transform="translate(380,747)" d="m0 0 6 3h3v2l4 1v2l-6-2-8-4z" fill="#3B3A38"/>
<path transform="translate(79,658)" d="m0 0h2l-2 5-4 2-2-4z" fill="#7A8A98"/>
<path transform="translate(657,593)" d="m0 0h2l-1 6-2 8h-1v-10z" fill="#A3A4A1"/>
<path transform="translate(659,581)" d="m0 0 1 3 2 1-1 5-1-4-15-3 4-1 10 2z" fill="#54575B"/>
<path transform="translate(152,571)" d="m0 0 4 4 2 5 1 1v5l-3-4-4-8z" fill="#DFE0DF"/>
<path transform="translate(422,560)" d="m0 0 1 3-4 9-3 4 1-6z" fill="#909390"/>
<path transform="translate(645,553)" d="m0 0 1 4-3 7-2-1 1-7z" fill="#BEC1BE"/>
<path transform="translate(604,337)" d="m0 0 4 4 5 9-1 3-2-6h-2l-4-8z" fill="#46423F"/>
<path transform="translate(514,706)" d="m0 0 3 1-4 1v2l-5 4-3 1 2-5z" fill="#616263"/>
<path transform="translate(300,593)" d="m0 0 1 4-3 8h-2l1-8 1-2h2z" fill="#B6B2AB"/>
<path transform="translate(412,577)" d="m0 0 1 4-4 9-2 4-1-3 4-12h2z" fill="#48484A"/>
<path transform="translate(146,420)" d="m0 0 1 3-3 7-4 2 3-9z" fill="#58809C"/>
<path transform="translate(442,200)" d="m0 0h6l4 4-5 1z" fill="#4C4747"/>
<path transform="translate(228,162)" d="m0 0 5 3 2 4v5l-2-1-1-2-1-3v-2l-4-2z" fill="#79A8BE"/>
<path transform="translate(491,165)" d="m0 0h3v2l-8 2-6 1-4-1z" fill="#423E3D"/>
<path transform="translate(515,165)" d="m0 0h10l2 2-15 1-5-1v-1z" fill="#2C2928"/>
<path transform="translate(523,163)" d="m0 0h8l7 2v1h-13v-2z" fill="#3E383A"/>
<path transform="translate(114,706)" d="m0 0h1l2 11h-3l-1-2v-7z" fill="#4D6B81"/>
<path transform="translate(629,662)" d="m0 0 1 3-3 5-6 2 6-8z" fill="#BFC4C1"/>
<path transform="translate(379,590)" d="m0 0 1 4-4 11h-1l1-9z" fill="#97C650"/>
<path transform="translate(362,478)" d="m0 0v3l-8 10-3-2 4-1 2-4z" fill="#B8D886"/>
<path transform="translate(655,459)" d="m0 0 4 4 1 4h-3l-4-7z" fill="#393634"/>
<path transform="translate(767,237)" d="m0 0 3 4h2v3l-4 1-2-1v-6z" fill="#5A8AAC"/>
<path transform="translate(585,701)" d="m0 0 2 1-3 3-8 3-3-1z" fill="#AEB2AE"/>
<path transform="translate(430,546)" d="m0 0 1 2-3 5-1 4-3 1 1-7 4-2z" fill="#6A6A6B"/>
<path transform="translate(433,543)" d="m0 0 1 3-3 6-4 5 1-6z" fill="#B8BBB6"/>
<path transform="translate(443,490)" d="m0 0 2 1-3 4h-2v2h-2l-1 3-3 1v-2h2l2-4z" fill="#464340"/>
<path transform="translate(203,442)" d="m0 0h2l-3 9-3 3-1-2z" fill="#505051"/>
<path transform="translate(640,442)" d="m0 0 4 2 3 5-2 2-4-4z" fill="#3D3A3A"/>
<path transform="translate(383,388)" d="m0 0h2l-3 9-3-1-1-4 3-1z" fill="#4E4D4D"/>
<path transform="translate(434,184)" d="m0 0 2 1-1 3-2 2v2l-4-2v-3z" fill="#696764"/>
<path transform="translate(443,180)" d="m0 0 2 1-2 4-6 1v-3z" fill="#34302E"/>
<path transform="translate(474,167)" d="m0 0h9l-4 2-9 2v-3z" fill="#D17F89"/>
<path transform="translate(275,79)" d="m0 0 4 8v4h-3l-1-6z" fill="#94B5C6"/>
<path transform="translate(316,60)" d="m0 0 4 2v4l-4-1v-2h-5l3-2z" fill="#7BAAC5"/>
<path transform="translate(352,742)" d="m0 0v3z" fill="#FEFEFE"/>
<path transform="translate(680,582)" d="m0 0" fill="#FEFEFE"/>
</svg>
