<?xml version="1.0" encoding="UTF-8"?>
<svg version="1.1" viewBox="0 0 1984 1260" width="1280" height="1280" xmlns="http://www.w3.org/2000/svg">
<path transform="translate(605,560)" d="m0 0h13l17 2 17 5 23 11 13 10 11 11 10 13 10 18 6 17 3 14 1 10v13l-3 21-5 16-8 17-9 13-11 12-11 9-14 9-15 7-9 3-21 4-15 1-21-3-15-4-16-7-16-10-12-11-8-7-9-13-9-17-6-18-2-9-1-9v-18l3-18 5-16 8-16 9-14 12-14 7-7 14-9 19-9 17-5zm-1 34-20 4-12 5-11 7-10 8-8 9-8 14-5 13-2 8-1 9v15l2 12 4 12 8 15 11 14 11 9 14 8 8 3 9 2 9 1h17l17-3 13-5 13-9 10-9 8-11 8-15 5-16 1-9v-15l-2-13-5-15-6-11-8-10-10-9-11-7-12-6-16-4-8-1z" fill="#FE413D"/>
<path transform="translate(606,611)" d="m0 0h11l15 3 10 4 12 8 7 6 9 13 5 10 3 12v20l-4 15-7 14-9 11-8 7-16 8-13 3h-21l-14-4-14-7-8-7-8-10-5-9-5-12-2-10v-16l3-14 8-16 7-9h2l1-3 10-7 15-7 7-2zm0 50-6 4-4 5-2 9 3 8 4 5 7 3h7l6-3 5-6 2-5v-7l-4-8-5-4-3-1z" fill="#FE413D"/>
<path transform="translate(431,500)" d="m0 0 5 1 8 9 8 7 4 4-1 4-9 10-13 17-9 14-10 19-10 26-6 22-3 18-1 13v31l3 23 6 24 8 22 10 21 8 13 8 11 13 16 6 6v4l-8 7-14 14-4-2-7-7-11-14-10-14-12-19-8-15-8-19-6-19-6-29-2-14v-54l6-33 6-22 6-15 10-21 12-19 12-17 11-14z" fill="#FE423E"/>
<path transform="translate(788,500)" d="m0 0 4 1 12 13 13 17 13 20 9 17 8 20 7 21 6 25 3 19 1 27-1 22-4 25-7 26-8 23-10 22-13 21-12 16-9 11-9 10-5-2-5-6-3-2v-2l-4-2-8-8 4-6 9-10 13-17 9-15 8-16 8-20 6-20 4-21 2-22v-19l-2-21-3-17-6-21-7-19-8-17-10-17-10-13-12-14-5-6 2-4 8-7z" fill="#FE413D"/>
<path transform="translate(479,548)" d="m0 0 4 1 20 20-1 4-11 14-7 10-8 14-7 16-5 16-3 18-1 14v10l2 18 5 21 7 18 8 16 12 16 9 10v3l-8 7-7 7-6 7-5-2-7-8-10-12-11-18-8-16-7-18-6-24-2-15v-32l4-25 4-16 8-20 11-21 12-17 12-14z" fill="#FE413D"/>
<path transform="translate(741,548)" d="m0 0 4 1 18 22 9 15 9 17 7 19 5 20 2 12 1 12v23l-2 19-6 25-7 19-12 23-10 14-7 9-9 10-4-2-20-20 2-4 7-8 9-12 9-16 7-17 4-13 4-20 1-12v-10l-2-21-5-21-7-18-9-17-12-16-8-10 6-7z" fill="#FE413D"/>
<path transform="translate(897,469)" d="m0 0h5l3 5v406l-2 6-4 1-4-4-1-5v-402z" fill="#FE413D"/>
<path transform="translate(1657,754)" d="m0 0h12l5 5 13 20 17 26 10 15 19 29 8 12v2h2l-1-3-1-105 1-1h9l1 1v125l-2 1h-7l-5-3-7-10-14-22-10-15-9-14-11-17-18-27-1 3v104l-1 1h-8l-2-1z" fill="#FE4945"/>
<path transform="translate(1120,615)" d="m0 0h34l15 3 8 4 7 8 2 6v9l-3 10-6 11-2 3 10 7 6 10 2 6 1 7v9l-2 12-6 10-7 6-7 3-18 2h-32l-2-1zm12 10v41h33l6-8 3-11v-9l-3-7-5-4-10-2zm0 51v55h28l9-2 7-4 4-6 1-5v-19l-3-9-5-6-5-3-4-1z" fill="#FE423E"/>
<path transform="translate(1100,475)" d="m0 0h12l15 3 11 6 7 6 6 9 5 14 2 11v29l-4 16-8 14-5 6-11 8-10 4-12 2h-12l-13-3-10-5-7-6-7-11-5-14-2-14v-19l3-16 4-10 7-12 8-8 12-7zm0 11-13 4-9 7-7 10-5 13-2 13v16l3 16 4 10 9 10 12 6 5 1h13l9-2 9-5 8-8 6-10 4-16v-26l-3-14-7-13-8-7-10-4-5-1z" fill="#FE433F"/>
<path transform="translate(1089,753)" d="m0 0 16 1 10 3 10 6 7 7 5 8 5 15 2 17v13l-2 16-5 14-8 11-9 8-12 6-9 2-16 1-12-2-12-6-9-8-7-12-4-13-1-5v-31l4-16 8-15 4-5 10-8 10-5zm-5 11-11 4-8 6-7 8-5 11-3 13v24l3 15 5 10 9 9 11 5 4 1h15l10-3 9-6 8-9 4-8 3-13 1-6v-17l-3-17-7-14-5-5-8-5-11-3z" fill="#FE423F"/>
<path transform="translate(1578,753)" d="m0 0h10l13 2 11 5 8 6 7 9 5 12 3 14v31l-3 13-6 12-8 10-11 8-11 4-15 2-14-1-11-4-9-6-7-7-6-12-4-14-1-9v-17l2-14 4-12 6-11 9-10 9-6 11-4zm-2 11-12 4-9 7-7 10-5 13-2 16v9l2 16 4 12 7 9 8 6 11 4h15l13-4 9-7 7-10 4-10 2-11v-25l-3-14-5-10-8-9-9-4-9-2z" fill="#FE4440"/>
<path transform="translate(1227,475)" d="m0 0h11l15 3 11 6 7 6 8 14 4 15 1 8v23l-3 15-5 12-7 9-7 7-10 6-11 3-8 1h-11l-10-2-14-7-8-8-6-10-4-12-2-13v-21l3-16 6-13 8-11 8-7 12-6zm-2 11-10 3-10 7-7 9-5 11-2 8-1 10v13l2 15 5 13 8 9 10 6 6 2h16l13-4 8-6 8-11 4-11 2-9v-25l-3-14-7-14-8-7-10-4-5-1z" fill="#FE423E"/>
<path transform="translate(1308,475)" d="m0 0h42l15 4 11 7 8 9 5 10 3 9 2 16v16l-3 20-4 12-8 11-10 7-11 4-18 2h-31l-1-1-1-10v-114zm12 10-1 2v105h31l10-3 9-6 6-9 4-10 2-11v-28l-3-15-5-10-5-6-10-6-12-3z" fill="#FE4642"/>
<path transform="translate(1257,754)" d="m0 0h11l1 3v73l2 15 3 10 6 8 8 5 6 2h16l10-4 7-6 5-10 3-13 1-82 1-1h10l1 1v30l-1 53-3 15-5 10-8 9-8 5-10 3-8 1h-9l-12-2-12-6-7-8-5-11-3-14-1-15v-70z" fill="#FE423E"/>
<path transform="translate(1216,615)" d="m0 0h64v9l-11 1h-41l-1 48h49v10l-2 1h-47v47h57v9l-14 1h-54l-1-1v-124z" fill="#FE413D"/>
<path transform="translate(1340,614)" d="m0 0h12l18 2 5 1 1 3-1 7h-9l-8-1h-22l-11 4-5 3-4 8v10l3 6 9 6 16 6 16 5 14 7 5 5 4 6 2 6v15l-3 9-9 10-8 5-16 4h-22l-17-4-10-5v-5l4-6 13 6 15 3 15-1 13-4 6-4 4-5 2-6v-9l-3-7-5-5-8-5-33-11-9-5-5-4-5-8-1-4v-11l3-9 6-8 9-6 9-3z" fill="#FE433F"/>
<path transform="translate(975,753)" d="m0 0h13l17 2 7 2-1 9-3 1-12-2h-24l-13 5-4 5-2 4v13l6 7 15 7 20 6 14 6 9 8 4 9 1 5v10l-3 10-6 8-6 5-9 4-15 3h-19l-17-4-10-5 1-6 2-3 5 1 16 5 16 1 15-3 10-5 5-6 2-6v-9l-4-8-8-6-15-7-20-6-14-7-6-8-2-6v-11l4-11 9-10 9-5z" fill="#FE423E"/>
<path transform="translate(991,475)" d="m0 0h14l15 4 8 6-1 4-2 3-9-3-10-3h-16l-12 4-9 6-6 8-5 10-3 9-1 6v29l3 13 5 9 7 7 9 4 4 1h15l16-2 5-1 1-41 2-2h8v48l-4 3-16 4-15 2h-12l-12-3-11-6-8-8-7-14-3-12v-31l4-17 7-14 11-12 12-7z" fill="#FE423E"/>
<path transform="translate(937,615)" d="m0 0h11l3 4 18 50 14 39 6 17 1 1 15-43 22-66 1-2h12l-11 33-13 35-7 20-12 33-3 5h-8l-5-5-11-30-20-54-13-36z" fill="#FE433F"/>
<path transform="translate(1368,754)" d="m0 0h81l1 2-1 8-10 1h-25v115l-1 1h-8l-2-1v-115h-19l-17-1z" fill="#FE423E"/>
<path transform="translate(1167,754)" d="m0 0h12v116h57v10l-28 1h-40l-1-1z" fill="#FE423E"/>
<path transform="translate(1061,615)" d="m0 0h31v8l-9 1v108h7l4 2v6l-26 1-8-1v-7l2-1h8v-107l-9-2-1-6z" fill="#FE4440"/>
<path transform="translate(1496,754)" d="m0 0h5l1 1v7l-9 2-1 98 1 9 9 1 1 1v7l-18 1-16-1v-7l1-1 9-1 1-108h-8l-2-1v-7z" fill="#FE433F"/>
</svg>
